<svg xmlns="http://www.w3.org/2000/svg" width="75" height="53" fill="none" viewBox="0 0 75 53"><path fill="#000" d="M13.8398 0.8125L26.9883 37.9375L40.0664 0.8125H53.918V52H43.3359V38.0078L44.3906 13.8555L30.5742 52H23.332L9.55078 13.8906L10.6055 38.0078V52H0.0585938V0.8125H13.8398ZM62.9883 47.0078C62.9883 45.3906 63.5273 44.0781 64.6055 43.0703C65.707 42.0625 67.0781 41.5586 68.7188 41.5586C70.3828 41.5586 71.7539 42.0625 72.832 43.0703C73.9336 44.0781 74.4844 45.3906 74.4844 47.0078C74.4844 48.6016 73.9453 49.9023 72.8672 50.9102C71.7891 51.8945 70.4062 52.3867 68.7188 52.3867C67.0547 52.3867 65.6836 51.8945 64.6055 50.9102C63.5273 49.9023 62.9883 48.6016 62.9883 47.0078Z"/></svg>